<svg width="414" height="446" viewBox="0 0 414 446" fill="none" xmlns="http://www.w3.org/2000/svg">
<g clip-path="url(#clip0_17_12)">
<path d="M206.5 0C228.625 0 247.057 15.7921 251.149 36.7188C344.261 56.9465 414 139.829 414 239C414 279.941 402.113 318.104 381.604 350.23C385.665 357.039 388 364.997 388 373.5C388 398.629 367.629 419 342.5 419C334.117 419 326.265 416.73 319.521 412.775C287.128 433.793 248.49 446 207 446C165.307 446 126.494 433.673 94.0039 412.466C87.1438 416.613 79.1009 419 70.5 419C45.371 419 25 398.629 25 373.5C25 364.66 27.523 356.411 31.8848 349.429C11.6891 317.47 0 279.6 0 239C0 140.2 69.2178 57.567 161.806 36.9482C165.807 15.9076 184.294 0 206.5 0ZM103.954 342.665C111.431 350.773 116 361.602 116 373.5C116 379 115.024 384.271 113.236 389.151C140.424 406.165 172.563 416 207 416C241.096 416 272.939 406.357 299.954 389.652C298.047 384.632 297 379.189 297 373.5C297 361.986 301.279 351.473 308.33 343.459L206.36 90.998C206.109 90.9973 205.857 90.9931 205.606 90.9883L103.954 342.665ZM246.867 66.5078C243.893 72.2116 239.746 77.2057 234.745 81.1709L334.71 328.667C337.241 328.23 339.844 328 342.5 328C348.071 328 353.408 329.003 358.341 330.835C374.622 304.061 384 272.626 384 239C384 154.954 325.422 84.5903 246.867 66.5078ZM166.243 66.7178C88.136 85.1253 30 155.272 30 239C30 272.503 39.3093 303.83 55.4805 330.54C60.1829 328.896 65.2367 328 70.5 328C72.8167 328 75.0928 328.174 77.3164 328.508L177.473 80.5381C172.881 76.7297 169.052 72.0353 166.243 66.7178Z" fill="url(#paint0_linear_17_12)"/>
</g>
<defs>
<linearGradient id="paint0_linear_17_12" x1="99" y1="85" x2="343" y2="379" gradientUnits="userSpaceOnUse">
<stop stop-color="#00D4AA"/>
<stop offset="1" stop-color="#6B46C1"/>
</linearGradient>
<clipPath id="clip0_17_12">
<rect width="414" height="446" fill="white"/>
</clipPath>
</defs>
</svg>
